<?xml version="1.0" standalone="no"?>
<!DOCTYPE svg PUBLIC "-//W3C//DTD SVG 20010904//EN"
 "http://www.w3.org/TR/2001/REC-SVG-20010904/DTD/svg10.dtd">
<svg version="1.0" xmlns="http://www.w3.org/2000/svg"
 width="1000.000000pt" height="1000.000000pt" viewBox="0 0 1000.000000 1000.000000"
 preserveAspectRatio="xMidYMid meet">

<g transform="translate(0.000000,1000.000000) scale(0.100000,-0.100000)"
fill="#000000" stroke="none">
<path d="M264 9991 c-100 -24 -189 -97 -233 -190 l-26 -56 0 -4745 0 -4745 26
-56 c34 -72 90 -128 165 -165 l59 -29 4745 0 4745 0 59 29 c75 37 131 93 165
165 l26 56 0 4745 0 4745 -26 56 c-34 72 -90 128 -165 165 l-59 29 -4725 2
c-2599 0 -4739 -2 -4756 -6z m4466 -766 c369 -36 689 -111 1025 -242 185 -72
486 -226 607 -310 26 -18 50 -33 53 -33 16 0 261 -181 370 -274 740 -628 1199
-1506 1297 -2476 19 -187 16 -584 -5 -760 -60 -494 -180 -888 -400 -1312 l-72
-138 -1269 0 -1270 0 90 59 c171 114 329 268 453 443 176 248 297 521 371 833
53 227 65 336 65 620 -1 337 -28 526 -117 803 -116 362 -291 656 -529 888
-152 146 -236 208 -398 290 -443 224 -945 181 -1366 -115 -91 -65 -288 -251
-350 -331 -230 -300 -378 -629 -455 -1010 -42 -208 -61 -573 -41 -765 28 -264
80 -492 166 -725 36 -97 165 -341 235 -443 241 -351 557 -588 903 -678 192
-49 176 -49 1842 -49 l1560 -1 80 -76 c44 -41 190 -182 323 -312 134 -130 272
-262 305 -294 34 -32 105 -100 157 -151 52 -51 232 -224 400 -386 168 -162
333 -321 368 -354 80 -77 122 -140 122 -181 0 -56 -49 -110 -315 -346 -77 -69
-202 -181 -279 -249 -234 -211 -361 -320 -368 -318 -3 2 -35 30 -70 63 -35 33
-84 78 -108 99 -25 21 -72 64 -105 95 -49 46 -368 338 -411 376 -7 5 -63 58
-125 116 -63 58 -151 138 -195 177 l-81 71 -1559 4 c-1393 3 -1572 5 -1684 20
-519 70 -971 221 -1400 467 -568 326 -1034 792 -1371 1370 -57 99 -169 327
-204 415 -15 39 -33 84 -41 100 -28 63 -104 306 -138 445 -76 310 -101 533
-101 900 0 204 5 311 18 415 97 755 374 1392 861 1975 90 108 330 347 427 425
41 33 85 70 99 83 14 12 28 22 31 22 4 0 27 16 51 37 23 20 97 71 163 115 66
43 125 83 132 88 7 6 14 10 16 10 2 0 51 27 110 59 421 235 923 393 1392 440
61 6 124 13 140 15 83 9 467 4 595 -9z m-3590 -5700 c94 -181 266 -443 378
-577 11 -12 39 -45 62 -73 106 -126 322 -334 460 -444 104 -84 345 -246 455
-306 547 -303 1143 -463 1844 -495 124 -6 797 -13 1494 -16 l1269 -6 56 -53
c32 -28 116 -103 187 -166 137 -120 566 -499 625 -553 19 -17 50 -44 69 -59
l35 -28 -2115 4 c-2284 4 -2159 1 -2594 57 -812 104 -1423 323 -1729 619 -313
303 -489 717 -563 1331 -26 220 -25 915 2 888 2 -2 31 -57 65 -123z"/>
</g>
</svg>
